<?xml version="1.0" encoding="UTF-8" standalone="no"?>
<!-- Created with Inkscape (http://www.inkscape.org/) -->

<svg
   xmlns:dc="http://purl.org/dc/elements/1.1/"
   xmlns:cc="http://creativecommons.org/ns#"
   xmlns:rdf="http://www.w3.org/1999/02/22-rdf-syntax-ns#"
   xmlns:svg="http://www.w3.org/2000/svg"
   xmlns="http://www.w3.org/2000/svg"
   xmlns:sodipodi="http://sodipodi.sourceforge.net/DTD/sodipodi-0.dtd"
   xmlns:inkscape="http://www.inkscape.org/namespaces/inkscape"
   width="210mm"
   height="297mm"
   viewBox="0 0 210 297"
   version="1.1"
   id="svg8"
   inkscape:version="0.92.0 r15299"
   sodipodi:docname="face.svg">
  <defs
     id="defs2" />
  <sodipodi:namedview
     id="base"
     pagecolor="#ffffff"
     bordercolor="#666666"
     borderopacity="1.0"
     inkscape:pageopacity="0.0"
     inkscape:pageshadow="2"
     inkscape:zoom="0.42226431"
     inkscape:cx="396.85039"
     inkscape:cy="561.25984"
     inkscape:document-units="mm"
     inkscape:current-layer="layer1"
     showgrid="false"
     inkscape:window-width="1280"
     inkscape:window-height="657"
     inkscape:window-x="-8"
     inkscape:window-y="-8"
     inkscape:window-maximized="1" />
  <metadata
     id="metadata5">
    <rdf:RDF>
      <cc:Work
         rdf:about="">
        <dc:format>image/svg+xml</dc:format>
        <dc:type
           rdf:resource="http://purl.org/dc/dcmitype/StillImage" />
        <dc:title></dc:title>
      </cc:Work>
    </rdf:RDF>
  </metadata>
  <g
     inkscape:label="Layer 1"
     inkscape:groupmode="layer"
     id="layer1">
    <path
       style="fill:none;stroke:#000000;stroke-width:0.26458332px;stroke-linecap:butt;stroke-linejoin:miter;stroke-opacity:1"
       d="M 125.94304,0.62658227 C 107.16997,6.0616917 110.27669,32.584067 102.13291,40.727846 c -1.25878,1.258782 -0.40272,21.303798 -1.25317,21.303798 -2.489971,0 12.4081,-13.661258 12.53165,-13.78481 9.41587,-9.415865 36.34177,11.790746 36.34177,16.917722 0,1.096032 -13.87289,-8.772152 -21.3038,-8.772152 -14.92219,0 -12.60967,1.3312 -21.30379,10.025316 -5.17491,5.174906 -6.62818,-0.626583 -5.63924,-0.626583 2.30694,0 -1.00467,5.261153 0.62658,6.892407 3.1649,3.164898 5.6886,6.917086 10.6519,9.398732 10.05484,5.02742 28.1962,12.272741 28.1962,23.810124 0,0.22719 -7.49703,-0.32427 -8.14557,0 -1.56297,0.78149 -10.33148,7.21282 -12.53164,5.01266 -4.60982,-4.60982 1.56484,-20.677213 6.8924,-20.677213 13.03304,0 -4.60444,22.775323 -5.01266,23.183543 -3.44366,3.44366 1.19838,13.78481 -2.50633,13.78481 -3.10494,0 5.88929,-1.97977 8.77215,-3.13291 6.98427,-2.79371 13.54738,-4.72465 20.05064,-6.89241 17.33728,-5.77909 34.28239,-31.061788 43.86076,-11.90506 1.63797,3.27594 0.12945,12.27275 -1.25317,15.03798 -12.65586,25.31172 -36.99886,33.83544 -68.29746,33.83544 -44.741694,0 -8.64582,-26.56914 -3.13292,-37.59494 1.66836,-3.33671 0.62659,-10.5689 0.62659,-15.03797 0,-2.182912 0.53136,-6.36104 -0.62659,-7.518989 -6.49376,-6.493767 -16.62137,-11.905065 -16.29114,-11.905065 1.16232,0 -0.51007,18.112634 -4.386071,20.050634 -5.395804,2.6979 -19.133346,22.88517 -23.810127,26.31646 0,0 -11.112344,13.45253 -13.78481,18.79747 -8.087074,16.17415 23.183544,19.14113 23.183544,22.55695 0,0.34159 -11.620003,-4.04455 -8.772152,-6.8924 1.442701,-1.4427 34.505776,13.24574 25.063286,-5.63924 -1.448668,-2.89735 -13.598533,-15.22424 -17.544299,-11.27848 -1.771123,1.77112 1.908926,4.38608 -0.626581,4.38608 -1.044305,0 -0.467027,-2.19886 0,-3.13292 6.867919,-13.73584 21.93038,5.71716 21.93038,12.53165 0,26.03288 -13.187089,5.6681 -21.303799,13.78481 -1.44649,1.44649 3.759494,8.45026 3.759494,10.6519 0,6.09768 -7.674951,9.96751 -6.265823,11.90506 10.025316,13.78481 25.213548,8.92241 31.329118,15.03797 5.93654,5.93655 -17.665011,-4.89195 -21.303802,-1.25316 -1.6125,1.6125 -9.349605,1.25317 -4.386076,15.03798 0.715073,1.98591 10.651899,1.13195 10.651899,4.38607 0,12.98542 -8.508226,31.46108 4.386079,41.35443 16.09697,12.35064 43.87132,3.75949 66.41772,3.75949 9.52149,0 15.67425,2.49663 20.67721,-2.50632 0.38223,-0.38222 -1.87975,6.22153 -1.87975,6.89241"
       id="path3713"
       inkscape:connector-curvature="0"
       sodipodi:nodetypes="csscsssscsscssssccscscsssssssscsscsssscssssscc" />
  </g>
</svg>
