<?xml version="1.0" encoding="UTF-8" standalone="no"?>
<!-- Created with Inkscape (http://www.inkscape.org/) -->

<svg
   xmlns:dc="http://purl.org/dc/elements/1.1/"
   xmlns:cc="http://creativecommons.org/ns#"
   xmlns:rdf="http://www.w3.org/1999/02/22-rdf-syntax-ns#"
   xmlns:svg="http://www.w3.org/2000/svg"
   xmlns="http://www.w3.org/2000/svg"
   xmlns:sodipodi="http://sodipodi.sourceforge.net/DTD/sodipodi-0.dtd"
   xmlns:inkscape="http://www.inkscape.org/namespaces/inkscape"
   width="210mm"
   height="297mm"
   viewBox="0 0 210 297"
   version="1.1"
   id="svg8"
   inkscape:version="0.92.0 r15299"
   sodipodi:docname="heart.svg">
  <defs
     id="defs2" />
  <sodipodi:namedview
     id="base"
     pagecolor="#ffffff"
     bordercolor="#666666"
     borderopacity="1.0"
     inkscape:pageopacity="0.0"
     inkscape:pageshadow="2"
     inkscape:zoom="0.35"
     inkscape:cx="400"
     inkscape:cy="560"
     inkscape:document-units="mm"
     inkscape:current-layer="layer1"
     showgrid="false"
     inkscape:window-width="1280"
     inkscape:window-height="657"
     inkscape:window-x="-8"
     inkscape:window-y="-8"
     inkscape:window-maximized="1" />
  <metadata
     id="metadata5">
    <rdf:RDF>
      <cc:Work
         rdf:about="">
        <dc:format>image/svg+xml</dc:format>
        <dc:type
           rdf:resource="http://purl.org/dc/dcmitype/StillImage" />
        <dc:title></dc:title>
      </cc:Work>
    </rdf:RDF>
  </metadata>
  <g
     inkscape:label="Layer 1"
     inkscape:groupmode="layer"
     id="layer1">
    <path
       style="fill:none;stroke:#000000;stroke-width:0.26458332px;stroke-linecap:butt;stroke-linejoin:miter;stroke-opacity:1"
       d="m 92.982141,154.88095 c -2.519841,-2.01587 -5.039682,-4.03175 -7.559524,-6.04762 -0.251984,0 -0.530569,0.11269 -0.755951,0 -0.812626,-0.40631 -1.62542,-0.86947 -2.267858,-1.5119 -0.178178,-0.17818 0.178181,-0.57778 0,-0.75595 -0.398423,-0.39843 -1.113483,-0.35754 -1.511903,-0.75596 -1.564092,-1.56409 2.39014,0.0611 -0.755954,-1.5119 -1.861873,-0.93094 0.682424,2.19433 -2.267858,-0.75595 -0.178178,-0.17818 0.178181,-0.57778 0,-0.75596 -0.178178,-0.17818 -0.57777,0.17818 -0.755951,0 -0.398423,-0.39842 -0.357529,-1.11348 -0.755952,-1.5119 -0.178181,-0.17818 -0.530572,0.11269 -0.755952,0 -0.318738,-0.15937 -0.527817,-0.48219 -0.755954,-0.75596 -1.032928,-1.23951 -1.882902,-2.63885 -3.023809,-3.77976 -1.564092,-1.56409 0.06114,2.39014 -1.511903,-0.75595 -0.112692,-0.22538 0.178178,-0.57777 0,-0.75595 -0.398423,-0.39842 -1.113483,-0.35753 -1.511906,-0.75595 -0.178181,-0.17818 0.178181,-0.57778 0,-0.75596 -0.178181,-0.17818 -0.577773,0.17818 -0.755952,0 -0.398423,-0.39842 -0.357531,-1.11348 -0.755954,-1.5119 -0.178178,-0.17818 -0.577771,0.17818 -0.755952,0 -0.398422,-0.39842 -0.357529,-1.11348 -0.755951,-1.5119 -1.83606,-1.83606 -1.110057,0.22479 -2.267858,-1.51191 -0.312547,-0.46882 -0.41788,-1.06114 -0.755951,-1.5119 -0.427633,-0.57018 -1.116561,-0.91889 -1.511906,-1.51191 -0.139774,-0.20966 0.139776,-0.54629 0,-0.75595 -0.581502,-0.87226 -1.686354,-1.39561 -2.267858,-2.26786 -0.39879,-0.59819 -2.045393,-3.86832 -2.267857,-4.53571 -0.07968,-0.23906 0.178181,-0.57778 0,-0.75596 -0.39842,-0.39842 -1.199357,-0.28713 -1.511904,-0.75595 -0.27955,-0.41932 0.15937,-1.0338 0,-1.5119 -0.112691,-0.33807 -0.503967,-0.50397 -0.755951,-0.75595 -0.755954,-0.75596 -1.626412,-1.4126 -2.267858,-2.26786 -0.338074,-0.45076 -0.443404,-1.04308 -0.755954,-1.51191 -0.395343,-0.59302 -1.116557,-0.91889 -1.511903,-1.5119 -0.930402,-1.39561 -1.337456,-3.14011 -2.267858,-4.53572 -0.395345,-0.59301 -1.286523,-0.83576 -1.511905,-1.5119 -0.159367,-0.47811 0.187171,-1.04398 0,-1.51191 -0.743929,-1.85982 -2.565117,-2.700946 -3.02381,-4.53571 -0.244459,-0.977842 0.318739,-2.067597 0,-3.023809 -0.112688,-0.338071 -0.596582,-0.437216 -0.755951,-0.755952 -0.112692,-0.225382 0.07968,-0.5169 0,-0.755954 -0.178181,-0.534538 -0.619295,-0.965274 -0.755952,-1.511903 -0.171328,-0.685308 0,-2.901596 0,-3.779764 0,-0.522001 -0.114919,-2.79397 0,-3.023809 0.159369,-0.318738 0.623605,-0.425079 0.755952,-0.755951 0.385858,-0.964647 0.391149,-2.051005 0.755951,-3.023809 0.395685,-1.055156 1.155547,-1.954731 1.511906,-3.02381 0.159369,-0.478107 -0.159369,-1.033798 0,-1.511905 0.112692,-0.338072 0.558279,-0.459444 0.755952,-0.755952 0.312547,-0.468823 0.443405,-1.043083 0.755952,-1.511906 0.395345,-0.593018 1.11656,-0.918887 1.511905,-1.511903 0.312547,-0.468823 0.443405,-1.043083 0.755952,-1.511906 0.581504,-0.872252 1.686356,-1.395603 2.267858,-2.267857 0.139776,-0.209664 -0.112692,-0.530572 0,-0.755952 0.159369,-0.318738 0.558281,-0.459444 0.755951,-0.755952 0.31255,-0.468823 0.287131,-1.199359 0.755954,-1.511906 0.419325,-0.27955 1.092579,0.279551 1.511904,0 0.468823,-0.312547 0.443404,-1.043082 0.755954,-1.511903 0.19767,-0.29651 0.459441,-0.558281 0.755951,-0.755954 0.468821,-0.312547 1.007936,-0.503968 1.511904,-0.755952 0.50397,-0.503967 0.918887,-1.11656 1.511906,-1.511906 0.209663,-0.139774 0.546287,0.139777 0.755951,0 0.593019,-0.395343 0.87443,-1.193165 1.511906,-1.511903 2.075357,0 1.061141,0.22538 3.023809,-0.755951 0.503968,-0.251987 1.043083,-0.443405 1.511906,-0.755955 1.383191,-0.922128 0.07542,-0.963795 2.267855,-1.511903 0.488921,-0.122232 1.022985,0.12223 1.511906,0 1.501235,-0.375309 3.03448,-1.892549 4.535715,-2.267857 0.488921,-0.12223 1.022982,0.122229 1.511903,0 0.546632,-0.136658 0.965274,-0.619295 1.511906,-0.755952 0.488921,-0.122232 1.007935,0 1.511903,0 1.76389,0 3.52778,0 5.291667,0 0.681389,0 3.303966,-0.158599 3.779763,0 0.534538,0.178178 0.977366,0.577771 1.511903,0.755952 0.239054,0.07968 0.530572,-0.112692 0.755955,0 0.318735,0.159369 0.437213,0.596582 0.755951,0.755951 0.225383,0.112692 0.530572,-0.112691 0.755952,0 0.747104,0.373552 0.764802,1.138354 1.511906,1.511906 0.450762,0.22538 1.06114,-0.225383 1.511903,0 0.318738,0.159369 0.459444,0.558279 0.755954,0.755952 0.468821,0.312547 1.199356,0.287131 1.511903,0.755951 0.279551,0.419328 -0.22538,1.061144 0,1.511906 0.112692,0.22538 0.530572,-0.112691 0.755955,0 0.318735,0.159369 0.596582,0.437214 0.755951,0.755952 0.112692,0.225382 0,0.503968 0,0.755951 0.251984,0.251984 0.596583,0.437216 0.755952,0.755955 0.112691,0.22538 -0.178178,0.57777 0,0.755951 0.178181,0.178179 0.577773,-0.178181 0.755952,0 1.56409,1.564093 -2.39014,-0.06114 0.755954,1.511906 0.225376,0.112689 0.643256,-0.225382 0.755956,0 1.19762,2.395252 -1.564375,0.703488 0.75595,3.023809 1.00794,1.007936 0.75595,-1.259922 0.75595,0.755952 0,1.772843 -0.17818,-0.356359 0.75595,1.511906 0.11269,0.22538 -0.17818,0.57777 0,0.755951 0.17818,0.178179 0.64326,-0.225382 0.75595,0 0.22539,0.450763 0,1.007936 0,1.511904 0,1.511905 0,3.023811 0,4.535715 0,1.511905 0,3.023809 0,4.535715 0,0.251983 0.25199,0.755951 0,0.755951 -0.25198,0 0,-0.503968 0,-0.755951 0,-0.34045 -0.11503,-2.037795 0,-2.267858 0.15937,-0.318738 0.43722,-0.596582 0.75596,-0.755952 0.22538,-0.112691 0.64326,0.22538 0.75595,0 0.22538,-0.450762 -0.12223,-1.022985 0,-1.511905 0.13666,-0.54663 0.57777,-0.977366 0.75595,-1.511904 0.0797,-0.239053 -0.11269,-0.530571 0,-0.755954 0.15937,-0.318738 0.59658,-0.437213 0.75595,-0.755952 0.11269,-0.225382 -0.11269,-0.530571 0,-0.755951 0.15937,-0.318738 0.55829,-0.459444 0.75596,-0.755954 0.31254,-0.468821 0.4434,-1.043083 0.75595,-1.511904 0.39535,-0.593018 1.28652,-0.83576 1.5119,-1.511905 0.15937,-0.478105 -0.15936,-1.033799 0,-1.511904 0.40613,-1.218387 1.10578,-0.293518 1.51191,-1.511906 0.15937,-0.478107 -0.15937,-1.033798 0,-1.511903 0.22538,-0.676145 1.19317,-0.874432 1.5119,-1.511906 0.52137,-1.042728 -0.9155,-0.676179 0.75596,-1.511906 0.22538,-0.112688 0.64326,0.225383 0.75595,0 0.22538,-0.450762 -0.15937,-1.033798 0,-1.511903 0.021,-0.06304 1.39401,-1.354709 1.5119,-1.511906 0.54513,-0.726831 0.86947,-1.62542 1.51191,-2.267857 0.39842,-0.39842 1.11348,-0.357529 1.5119,-0.755952 0.17818,-0.178178 -0.17818,-0.577773 0,-0.755951 2.95028,-2.950282 0.40598,0.174984 2.26786,-0.755952 0.31874,-0.159369 0.41788,-0.643263 0.75595,-0.755954 3.44131,0 0.0432,0.356359 2.26786,-0.755952 0.40748,-0.203742 1.10442,0.203742 1.5119,0 0.63748,-0.318738 0.87443,-1.193168 1.51191,-1.511906 0.29973,-0.149862 2.11331,0.154546 2.26786,0 0.17817,-0.178178 -0.17819,-0.57777 0,-0.755951 0.17817,-0.178179 0.53057,0.112691 0.75595,0 0.31874,-0.15937 0.41788,-0.643261 0.75595,-0.755952 0.71716,-0.239054 1.51191,0 2.26786,0 1.76389,0 3.52778,0 5.29166,0 2.51984,0 5.03969,0 7.55953,0 0.4966,0 2.84604,-0.08888 3.02381,0 0.22538,0.112691 0,0.503968 0,0.755952 0.50396,0.251983 0.96527,0.619294 1.5119,0.755951 0.48892,0.122232 1.02298,-0.122229 1.51191,0 3.65045,0.912614 -0.0375,0.359244 2.26785,1.511906 0.22539,0.112691 0.53057,-0.112691 0.75596,0 0.63747,0.318738 0.91888,1.11656 1.5119,1.511906 0.46882,0.312547 1.11348,0.357529 1.51191,0.755952 0.17817,0.178178 -0.17818,0.577773 0,0.755951 0.39842,0.398423 1.11348,0.357532 1.5119,0.755952 0.8909,0.8909 1.48079,2.039977 2.26786,3.023812 0.22261,0.278267 0.59658,0.437213 0.75595,0.755951 0.11269,0.22538 -0.11269,0.530572 0,0.755952 0.31874,0.637476 1.19317,0.874429 1.5119,1.511906 0.1127,0.22538 0,0.503967 0,0.755951 0.25199,0.251984 0.59659,0.437214 0.75596,0.755952 0.11269,0.225383 -0.17818,0.577773 0,0.755954 0.17818,0.178179 0.64326,-0.225382 0.75595,0 0.22538,0.450763 -0.15937,1.033796 0,1.511903 0.11269,0.338072 0.59658,0.437216 0.75595,0.755952 0.20374,0.407485 -0.20374,1.104421 0,1.511906 0.15937,0.318738 0.59658,0.437213 0.75595,0.755952 0.0847,0.169431 0,2.844172 0,3.023809 0,0.644924 0.14044,5.010792 0,5.291666 -2.50717,2.507179 0.35636,-0.712718 -0.75595,1.511906 -0.15937,0.318738 -0.59658,0.437213 -0.75595,0.755952 -0.30238,0.604763 0.30238,1.663096 0,2.267857 -0.15937,0.318738 -0.59658,0.437216 -0.75595,0.755952 -0.11269,0.225382 0.11269,0.530571 0,0.755954 -0.15937,0.318736 -0.64326,0.41788 -0.75596,0.755952 -0.11525,0.345762 0.16819,2.687428 0,3.023809 -0.15936,0.318738 -0.59658,0.437216 -0.75595,0.755951 -0.11269,0.225383 0.11269,0.530572 0,0.755955 -0.15937,0.318735 -0.59658,0.437213 -0.75595,0.755951 -0.33807,0.676146 0.33807,1.591712 0,2.267858 -0.11269,0.22538 -0.57777,-0.178181 -0.75595,0 -2.95028,2.950281 0.17498,0.405982 -0.75595,2.267857 -0.33502,0.670028 -1.80909,1.5797 -2.26786,2.267858 -0.31255,0.46882 -0.42845,1.053401 -0.75595,1.511903 -0.93782,1.312947 -1.99088,2.540249 -3.02381,3.77976 -0.22814,0.27377 -0.55828,0.45944 -0.75596,0.75595 -0.31254,0.46883 -0.57777,0.97737 -0.75595,1.51191 -0.0797,0.23905 0.17818,0.57777 0,0.75595 -0.39842,0.39842 -1.19935,0.28713 -1.5119,0.75595 -0.27956,0.41933 0.22538,1.06114 0,1.51191 -0.11269,0.22538 -0.57778,-0.17818 -0.75596,0 -0.39842,0.39842 -0.35752,1.11348 -0.75595,1.5119 -1.56409,1.5641 0.0611,-2.39014 -1.5119,0.75595 -0.11269,0.22539 0.17818,0.57778 0,0.75596 -0.39842,0.39842 -1.11349,0.35753 -1.51191,0.75595 -0.17818,0.17818 0.0797,0.5169 0,0.75595 -0.17818,0.53454 -0.4434,1.04309 -0.75595,1.51191 -0.69331,1.03996 -1.16622,0.77748 -2.26786,1.5119 -1.11236,0.74158 -1.91144,2.28224 -3.02381,3.02381 -0.20966,0.13978 -0.57777,-0.17818 -0.75595,0 -0.39842,0.39842 -0.35753,1.11348 -0.75595,1.51191 -0.39842,0.39842 -1.04308,0.4434 -1.51191,0.75595 -0.59301,0.39534 -1.00793,1.00794 -1.5119,1.5119 -0.25198,0.25199 -0.55828,0.45945 -0.75595,0.75596 -0.31255,0.46882 -0.44341,1.04308 -0.75596,1.5119 -0.19767,0.29651 -0.50396,0.50397 -0.75595,0.75595 -0.25198,0.25199 -0.43721,0.59659 -0.75595,0.75595 -0.22538,0.1127 -0.53057,-0.11268 -0.75595,0 -0.67003,0.33502 -1.57971,1.80909 -2.26786,2.26786 -0.46882,0.31255 -1.04308,0.44341 -1.5119,0.75596 -0.59302,0.39534 -0.87443,1.19316 -1.51191,1.5119 -0.22538,0.11269 -0.53057,-0.11269 -0.75595,0 -0.31874,0.15937 -0.45945,0.55828 -0.75595,0.75595 -0.46883,0.31255 -1.11349,0.35753 -1.51191,0.75596 -0.25198,0.50396 -0.50397,1.00793 -0.75595,1.5119 -0.25198,0 -0.57777,-0.17818 -0.75595,0 -0.39843,0.39842 -0.35753,1.11348 -0.75596,1.5119 -0.17817,0.17818 -0.53057,-0.11269 -0.75595,0 -0.31874,0.15937 -0.50397,0.50397 -0.75595,0.75596 -0.25198,0.25198 -0.59658,0.43721 -0.75595,0.75595 -0.52137,1.04273 0.9155,0.67618 -0.75596,1.5119 -0.22538,0.1127 -0.57777,-0.17818 -0.75595,0 -0.39842,0.39843 -0.35753,1.11349 -0.75595,1.51191 -0.17818,0.17818 -0.53057,-0.11269 -0.75595,0 -0.63748,0.31874 -0.90076,1.14521 -1.51191,1.5119 -0.96631,0.57979 -2.05749,0.93212 -3.02381,1.51191 -0.61115,0.36669 -0.87443,1.19316 -1.5119,1.5119 -0.45076,0.22538 -1.15555,-0.35636 -1.51191,0 -0.17818,0.17818 0.22539,0.64326 0,0.75596 -0.45076,0.22538 -1.06114,-0.22539 -1.5119,0 -0.22538,0.11268 0.17818,0.57777 0,0.75595 -0.17818,0.17818 -0.53057,-0.11269 -0.75595,0 -3.1461,1.57304 0.80814,-0.0522 -0.75596,1.5119 -0.17817,0.17818 -0.53057,-0.11269 -0.75595,0 -3.14609,1.57305 0.80814,-0.0522 -0.75595,1.51191 -0.17818,0.17818 -0.50397,0 -0.75595,0 -0.25199,0 -0.50397,0 -0.75596,0"
       id="path3684"
       inkscape:connector-curvature="0" />
  </g>
</svg>
